<svg width="22" height="22" viewBox="0 0 22 22" fill="none" xmlns="http://www.w3.org/2000/svg">
<path d="M4.1061 17.5808C3.59847 17.7984 3.36332 18.3863 3.58087 18.8939C3.79843 19.4015 4.38631 19.6367 4.89394 19.4191L4.1061 17.5808ZM11 4.99999V5.99999V4.99999ZM17.1061 19.4191C17.6137 19.6367 18.2016 19.4015 18.4192 18.8939C18.6367 18.3863 18.4016 17.7984 17.8939 17.5808L17.1061 19.4191ZM4.50002 18.5C4.89394 19.4191 4.89401 19.4191 4.8941 19.4191C4.89415 19.419 4.89425 19.419 4.89435 19.419C4.89454 19.4189 4.89478 19.4188 4.89508 19.4187C4.89567 19.4184 4.89647 19.4181 4.89748 19.4176C4.89951 19.4167 4.90237 19.4155 4.90604 19.4139C4.91339 19.4108 4.92399 19.4062 4.93766 19.4002C4.965 19.3884 5.00464 19.3711 5.0551 19.3489C5.15599 19.3045 5.30033 19.2404 5.47632 19.1604C5.8277 19.0006 6.30815 18.7765 6.82223 18.5194C7.33445 18.2633 7.89054 17.9694 8.38951 17.67C8.87074 17.3813 9.36582 17.0484 9.70713 16.7071L8.29291 15.2929C8.13422 15.4516 7.8168 15.6812 7.36052 15.955C6.922 16.2181 6.41559 16.4867 5.92781 16.7306C5.44189 16.9735 4.98484 17.1868 4.64872 17.3396C4.48096 17.4159 4.34405 17.4767 4.24962 17.5183C4.20243 17.539 4.16589 17.555 4.14148 17.5656C4.12927 17.5709 4.1201 17.5748 4.11414 17.5774C4.11116 17.5787 4.10898 17.5796 4.10764 17.5802C4.10696 17.5805 4.1065 17.5807 4.10624 17.5808C4.10611 17.5808 4.10603 17.5809 4.10601 17.5809C4.106 17.5809 4.10602 17.5809 4.10602 17.5809C4.10605 17.5809 4.1061 17.5808 4.50002 18.5ZM9.70713 16.7071C9.90709 16.5071 10.139 16.2048 10.1929 15.7887C10.249 15.3562 10.0862 15.014 9.95057 14.803C9.82424 14.6065 9.65605 14.4256 9.53945 14.3C9.40387 14.154 9.27803 14.0216 9.14324 13.8598C8.66193 13.2822 8.00002 12.2567 8.00002 9.99999H6.00002C6.00002 12.7432 6.83811 14.2178 7.6068 15.1402C7.78451 15.3534 7.95555 15.5335 8.07387 15.6609C8.21118 15.8088 8.25393 15.8623 8.26822 15.8845C8.2732 15.8923 8.18077 15.7532 8.20949 15.5316C8.23608 15.3265 8.34295 15.2428 8.29291 15.2929L9.70713 16.7071ZM8.00002 9.99999C8.00002 7.81982 8.84296 6.9024 9.53002 6.47299C9.90498 6.23864 10.2867 6.11798 10.579 6.0571C10.7235 6.027 10.8409 6.0126 10.9171 6.0058C10.955 6.00241 10.9822 6.00096 10.9967 6.00035C11.004 6.00005 11.0081 5.99996 11.0087 5.99994C11.009 5.99994 11.0085 5.99995 11.007 5.99996C11.0063 5.99997 11.0054 5.99998 11.0042 5.99999C11.0036 5.99999 11.003 5.99999 11.0023 5.99999C11.0019 5.99999 11.0014 5.99999 11.0012 5.99999C11.0006 5.99999 11 5.99999 11 4.99999C11 3.99999 10.9994 3.99999 10.9988 4C10.9985 4 10.9979 4 10.9974 4C10.9964 4 10.9954 4 10.9944 4.00001C10.9922 4.00002 10.9898 4.00004 10.9872 4.00006C10.9819 4.00012 10.9756 4.0002 10.9684 4.00035C10.9539 4.00064 10.9355 4.00116 10.9135 4.00208C10.8694 4.00392 10.8107 4.00734 10.7392 4.01372C10.5967 4.02645 10.4016 4.05112 10.1711 4.09914C9.7133 4.19451 9.09506 4.38635 8.47002 4.777C7.15708 5.59759 6.00002 7.18017 6.00002 9.99999H8.00002ZM11 4.99999C11 5.99999 10.9994 5.99999 10.9988 5.99999C10.9987 5.99999 10.9981 5.99999 10.9978 5.99999C10.9971 5.99999 10.9964 5.99999 10.9958 5.99999C10.9947 5.99998 10.9937 5.99997 10.993 5.99996C10.9916 5.99995 10.991 5.99994 10.9913 5.99994C10.992 5.99996 10.996 6.00005 11.0033 6.00035C11.0179 6.00096 11.045 6.00241 11.083 6.0058C11.1592 6.0126 11.2766 6.027 11.4211 6.0571C11.7133 6.11798 12.0951 6.23864 12.47 6.47299C13.1571 6.9024 14 7.81982 14 9.99999H16C16 7.18017 14.843 5.59759 13.53 4.777C12.905 4.38635 12.2867 4.19451 11.829 4.09914C11.5985 4.05112 11.4034 4.02645 11.2608 4.01372C11.1894 4.00734 11.1306 4.00392 11.0866 4.00208C11.0645 4.00116 11.0461 4.00064 11.0317 4.00035C11.0244 4.0002 11.0181 4.00012 11.0128 4.00006C11.0102 4.00004 11.0078 4.00002 11.0057 4.00001C11.0046 4 11.0036 4 11.0027 4C11.0022 4 11.0015 4 11.0013 4C11.0006 3.99999 11 3.99999 11 4.99999ZM14 9.99999C14 12.2567 13.3381 13.2822 12.8568 13.8598C12.722 14.0216 12.5962 14.154 12.4606 14.3C12.344 14.4256 12.1758 14.6065 12.0495 14.803C11.9138 15.014 11.7511 15.3562 11.8071 15.7887C11.8611 16.2048 12.093 16.5071 12.2929 16.7071L13.7071 15.2929C13.6571 15.2428 13.764 15.3265 13.7905 15.5316C13.8193 15.7532 13.7268 15.8923 13.7318 15.8845C13.7461 15.8623 13.7889 15.8088 13.9262 15.6609C14.0445 15.5335 14.2155 15.3534 14.3932 15.1402C15.1619 14.2178 16 12.7432 16 9.99999H14ZM12.2929 16.7071C12.6342 17.0484 13.1293 17.3813 13.6105 17.67C14.1095 17.9694 14.6656 18.2633 15.1778 18.5194C15.6919 18.7765 16.1723 19.0006 16.5237 19.1604C16.6997 19.2404 16.844 19.3045 16.9449 19.3489C16.9954 19.3711 17.035 19.3884 17.0624 19.4002C17.076 19.4062 17.0866 19.4108 17.094 19.4139C17.0977 19.4155 17.1005 19.4167 17.1026 19.4176C17.1036 19.4181 17.1044 19.4184 17.105 19.4187C17.1053 19.4188 17.1055 19.4189 17.1057 19.419C17.1058 19.419 17.1059 19.419 17.1059 19.4191C17.106 19.4191 17.1061 19.4191 17.5 18.5C17.8939 17.5808 17.894 17.5809 17.894 17.5809C17.894 17.5809 17.894 17.5809 17.894 17.5809C17.894 17.5809 17.8939 17.5808 17.8938 17.5808C17.8935 17.5807 17.8931 17.5805 17.8924 17.5802C17.8911 17.5796 17.8889 17.5787 17.8859 17.5774C17.8799 17.5748 17.8708 17.5709 17.8586 17.5656C17.8341 17.555 17.7976 17.539 17.7504 17.5183C17.656 17.4767 17.5191 17.4159 17.3513 17.3396C17.0152 17.1868 16.5581 16.9735 16.0722 16.7306C15.5844 16.4867 15.078 16.2181 14.6395 15.955C14.1832 15.6812 13.8658 15.4516 13.7071 15.2929L12.2929 16.7071ZM11 22C17.0751 22 22 17.0751 22 11H20C20 15.9706 15.9706 20 11 20V22ZM22 11C22 4.92487 17.0751 0 11 0V2C15.9706 2 20 6.02944 20 11H22ZM11 0C4.92487 0 0 4.92487 0 11H2C2 6.02944 6.02944 2 11 2V0ZM0 11C0 17.0751 4.92487 22 11 22V20C6.02944 20 2 15.9706 2 11H0Z" fill="#7F7FA8"/>
</svg>
