<svg width="24" height="24" viewBox="0 0 24 24" fill="none" xmlns="http://www.w3.org/2000/svg">
<path d="M9.652 4.36755L8.70332 4.05132V4.05132L9.652 4.36755ZM9.26643 5.52425L9.67706 6.43605L10.0766 6.25613L10.2151 5.84047L9.26643 5.52425ZM8.08681 6.20652L7.88633 7.18622L8.31631 7.27421L8.67216 7.0173L8.08681 6.20652ZM6.89073 5.96176L7.09121 4.98206H7.09121L6.89073 5.96176ZM4.75771 6.92116L5.62374 7.42116H5.62374L4.75771 6.92116ZM4.268 7.76938L3.40197 7.26938H3.40197L4.268 7.76938ZM4.50364 10.0963L5.25184 9.43285L5.25184 9.43285L4.50364 10.0963ZM5.31363 11.0098L6.30867 11.1093L6.35222 10.6738L6.06183 10.3463L5.31363 11.0098ZM5.31363 12.3713L6.06183 13.0348L6.35222 12.7073L6.30866 12.2718L5.31363 12.3713ZM4.50362 13.2848L5.25182 13.9483H5.25182L4.50362 13.2848ZM4.26797 15.6117L3.40195 16.1117H3.40195L4.26797 15.6117ZM4.75769 16.4599L5.62372 15.9599H5.62372L4.75769 16.4599ZM6.8907 17.4193L6.69022 16.4396H6.69022L6.8907 17.4193ZM8.08678 17.1746L8.67213 16.3638L8.31629 16.1069L7.8863 16.1949L8.08678 17.1746ZM9.26643 17.8569L10.2151 17.5406L10.0766 17.125L9.67705 16.9451L9.26643 17.8569ZM9.652 19.0136L8.70332 19.3298L9.652 19.0136ZM14.4262 19.0136L15.3749 19.3298L14.4262 19.0136ZM14.8117 17.8569L14.4011 16.9451L14.0016 17.125L13.8631 17.5407L14.8117 17.8569ZM15.9914 17.1746L16.1919 16.1949L15.7619 16.1069L15.4061 16.3638L15.9914 17.1746ZM17.1875 17.4193L17.388 16.4396L17.388 16.4396L17.1875 17.4193ZM19.3205 16.4599L20.1865 16.9599L19.3205 16.4599ZM19.8102 15.6117L18.9442 15.1117H18.9442L19.8102 15.6117ZM19.5746 13.2848L18.8264 13.9483L18.8264 13.9483L19.5746 13.2848ZM18.7646 12.3713L17.7695 12.2718L17.726 12.7073L18.0164 13.0348L18.7646 12.3713ZM18.7646 11.0097L18.0164 10.3463L17.726 10.6737L17.7695 11.1093L18.7646 11.0097ZM19.5746 10.0963L20.3228 10.7598L20.3228 10.7598L19.5746 10.0963ZM19.8102 7.76937L18.9442 8.26937L18.9442 8.26938L19.8102 7.76937ZM19.3205 6.92116L20.1865 6.42116V6.42116L19.3205 6.92116ZM17.1875 5.96176L16.987 4.98206L17.1875 5.96176ZM15.9914 6.20652L15.406 7.0173L15.7619 7.27421L16.1919 7.18622L15.9914 6.20652ZM14.8117 5.52423L13.863 5.84046L14.0016 6.25612L14.4011 6.43604L14.8117 5.52423ZM14.4262 4.36754L15.3749 4.05132H15.3749L14.4262 4.36754ZM10.6007 4.68377C10.7368 4.27543 11.1189 4 11.5494 4V2C10.2581 2 9.11166 2.82629 8.70332 4.05132L10.6007 4.68377ZM10.2151 5.84047L10.6007 4.68377L8.70332 4.05132L8.31775 5.20802L10.2151 5.84047ZM8.67216 7.0173C8.98525 6.79127 9.3217 6.59608 9.67706 6.43605L8.85581 4.61244C8.37625 4.82841 7.92284 5.09152 7.50146 5.39574L8.67216 7.0173ZM6.69025 6.94146L7.88633 7.18622L8.28729 5.22682L7.09121 4.98206L6.69025 6.94146ZM5.62374 7.42116C5.83896 7.04839 6.26855 6.85517 6.69025 6.94146L7.09121 4.98206C5.82613 4.72319 4.53733 5.30287 3.89169 6.42116L5.62374 7.42116ZM5.13402 8.26938L5.62374 7.42116L3.89169 6.42116L3.40197 7.26938L5.13402 8.26938ZM5.25184 9.43285C4.96627 9.1108 4.91881 8.64214 5.13402 8.26938L3.40197 7.26938C2.75632 8.38767 2.89871 9.79364 3.75544 10.7598L5.25184 9.43285ZM6.06183 10.3463L5.25184 9.43285L3.75544 10.7598L4.56543 11.6732L6.06183 10.3463ZM6.27977 11.6906C6.27977 11.4941 6.28958 11.3002 6.30867 11.1093L4.3186 10.9102C4.2929 11.1671 4.27977 11.4275 4.27977 11.6906H6.27977ZM6.30866 12.2718C6.28957 12.0809 6.27977 11.8871 6.27977 11.6906H4.27977C4.27977 11.9536 4.2929 12.2139 4.31859 12.4708L6.30866 12.2718ZM5.25182 13.9483L6.06183 13.0348L4.56542 11.7079L3.75541 12.6213L5.25182 13.9483ZM5.134 15.1117C4.91878 14.739 4.96624 14.2703 5.25182 13.9483L3.75541 12.6213C2.89868 13.5875 2.7563 14.9934 3.40195 16.1117L5.134 15.1117ZM5.62372 15.9599L5.134 15.1117L3.40195 16.1117L3.89167 16.9599L5.62372 15.9599ZM6.69022 16.4396C6.26853 16.5259 5.83893 16.3327 5.62372 15.9599L3.89167 16.9599C4.53731 18.0782 5.82611 18.6579 7.09118 18.399L6.69022 16.4396ZM7.8863 16.1949L6.69022 16.4396L7.09118 18.399L8.28726 18.1543L7.8863 16.1949ZM9.67705 16.9451C9.32169 16.785 8.98523 16.5898 8.67213 16.3638L7.50143 17.9854C7.92282 18.2896 8.37623 18.5527 8.8558 18.7687L9.67705 16.9451ZM10.6007 18.6974L10.2151 17.5406L8.31774 18.1731L8.70332 19.3298L10.6007 18.6974ZM11.5494 19.3811C11.1189 19.3811 10.7368 19.1057 10.6007 18.6974L8.70332 19.3298C9.11166 20.5548 10.2581 21.3811 11.5494 21.3811V19.3811ZM12.5288 19.3811H11.5494V21.3811H12.5288V19.3811ZM13.4775 18.6974C13.3414 19.1057 12.9592 19.3811 12.5288 19.3811V21.3811C13.8201 21.3811 14.9665 20.5548 15.3749 19.3298L13.4775 18.6974ZM13.8631 17.5407L13.4775 18.6974L15.3749 19.3298L15.7604 18.1731L13.8631 17.5407ZM15.4061 16.3638C15.093 16.5898 14.7565 16.785 14.4011 16.9451L15.2224 18.7687C15.7019 18.5527 16.1554 18.2896 16.5768 17.9854L15.4061 16.3638ZM17.388 16.4396L16.1919 16.1949L15.7909 18.1543L16.987 18.399L17.388 16.4396ZM18.4545 15.9599C18.2393 16.3327 17.8097 16.5259 17.388 16.4396L16.987 18.399C18.2521 18.6579 19.5409 18.0782 20.1865 16.9599L18.4545 15.9599ZM18.9442 15.1117L18.4545 15.9599L20.1865 16.9599L20.6762 16.1117L18.9442 15.1117ZM18.8264 13.9483C19.1119 14.2703 19.1594 14.739 18.9442 15.1117L20.6762 16.1117C21.3219 14.9934 21.1795 13.5875 20.3228 12.6213L18.8264 13.9483ZM18.0164 13.0348L18.8264 13.9483L20.3228 12.6213L19.5128 11.7079L18.0164 13.0348ZM17.7984 11.6906C17.7984 11.8871 17.7886 12.0809 17.7695 12.2718L19.7596 12.4709C19.7853 12.214 19.7984 11.9536 19.7984 11.6906H17.7984ZM17.7695 11.1093C17.7886 11.3001 17.7984 11.4941 17.7984 11.6906H19.7984C19.7984 11.4275 19.7853 11.1671 19.7596 10.9102L17.7695 11.1093ZM18.8263 9.43285L18.0164 10.3463L19.5128 11.6732L20.3228 10.7598L18.8263 9.43285ZM18.9442 8.26938C19.1594 8.64214 19.1119 9.1108 18.8263 9.43285L20.3228 10.7598C21.1795 9.79364 21.3219 8.38767 20.6762 7.26937L18.9442 8.26938ZM18.4545 7.42116L18.9442 8.26937L20.6762 7.26937L20.1865 6.42116L18.4545 7.42116ZM17.3879 6.94146C17.8096 6.85517 18.2392 7.04839 18.4545 7.42116L20.1865 6.42116C19.5409 5.30287 18.2521 4.72319 16.987 4.98206L17.3879 6.94146ZM16.1919 7.18622L17.3879 6.94146L16.987 4.98206L15.7909 5.22682L16.1919 7.18622ZM14.4011 6.43604C14.7565 6.59607 15.0929 6.79126 15.406 7.0173L16.5767 5.39574C16.1553 5.09151 15.7019 4.82839 15.2224 4.61242L14.4011 6.43604ZM13.4775 4.68377L13.863 5.84046L15.7604 5.208L15.3749 4.05132L13.4775 4.68377ZM12.5288 4C12.9592 4 13.3414 4.27543 13.4775 4.68377L15.3749 4.05132C14.9665 2.82629 13.8201 2 12.5288 2V4ZM11.5494 4H12.5288V2H11.5494V4Z" fill="#7F7FA8"/>
<path fill-rule="evenodd" clip-rule="evenodd" d="M12 14C13.1046 14 14 13.1046 14 12C14 10.8954 13.1046 10 12 10C10.8954 10 10 10.8954 10 12C10 13.1046 10.8954 14 12 14Z" stroke="#7F7FA8" stroke-width="2"/>
</svg>
